<?xml version="1.0" encoding="UTF-8"?>
<!DOCTYPE svg PUBLIC "-//W3C//DTD SVG 1.1//EN" "http://www.w3.org/Graphics/SVG/1.1/DTD/svg11.dtd">
<!-- Creator: CorelDRAW -->
<svg xmlns="http://www.w3.org/2000/svg" xml:space="preserve" width="210mm" height="297mm" version="1.1" style="shape-rendering:geometricPrecision; text-rendering:geometricPrecision; image-rendering:optimizeQuality; fill-rule:evenodd; clip-rule:evenodd"
viewBox="0 0 21000 29700"
 xmlns:xlink="http://www.w3.org/1999/xlink"
 xmlns:xodm="http://www.corel.com/coreldraw/odm/2003">
 <defs>
  <style type="text/css">
   <![CDATA[
    .str0 {stroke:#133853;stroke-width:12.67;stroke-miterlimit:22.9256}
    .fil1 {fill:none;fill-rule:nonzero}
    .fil3 {fill:#113650}
    .fil0 {fill:#133853}
    .fil6 {fill:#927A4B}
    .fil4 {fill:#987E4B}
    .fil7 {fill:#997F4D}
    .fil8 {fill:#99804D}
    .fil5 {fill:#F6F5F5}
    .fil2 {fill:#133853;fill-rule:nonzero}
   ]]>
  </style>
 </defs>
 <g id="Camada_x0020_1">
  <metadata id="CorelCorpID_0Corel-Layer"/>
  <g id="_2762093200080">
   <path class="fil0" d="M13412.96 17706.93c-5.24,-313.2 -30.39,-1088.97 16.53,-1359.21 54.09,-311.34 257.94,-119.9 272.52,-257.08 6.22,-58.58 -35.58,-50 -89.39,-52.49 -151.61,-7.05 -527.68,-10.78 -663.46,6.99 -1.85,4.07 -42.91,14.64 -5.84,77.23 16.22,27.43 36.14,23.7 69,30.06 206.28,39.93 227.21,27.86 242.52,301.5l9.92 1151.44c-71.5,-22.9 -57.26,-33.68 -99.99,-89.84l-912.39 -1078.16c-60.41,-67.85 -97.28,-118.13 -163.84,-193.88 -26.31,-29.97 -54.96,-60.1 -82.4,-95.83 -46.88,-61.04 -22.52,-60.83 -88.94,-105.19l-492.38 13.22c3.92,184.28 206.03,17.43 300.07,253.02 39.53,99.05 24.82,401.09 24.94,522.87 0.24,267.06 47.3,1080.55 -111.47,1152.23 -39.69,17.92 -98.38,14.52 -130.02,27.67 -77.79,32.32 -51.15,-18.53 -52.77,100.6 154.07,10.56 341.14,4.2 502.45,3.75 30.44,-0.09 357.84,22.57 247.69,-77.5 -122.18,-111 -261.41,84.97 -297.53,-346.46l-13.76 -1200.5c78.98,27.97 52.37,29.59 104.44,99.61l456.12 539.42c36.99,45.02 46.5,73.14 84.74,114.87l453.55 541.28c206.47,259.36 238.35,383.84 415.41,351.92l4.28 -431.54z"/>
   <path class="fil0" d="M9020.92 17221.6c3.29,-103.74 -18.13,-84.34 -125.28,-84.3 -120.09,0.05 -642.55,-12.35 -684.38,12.59 -19.21,11.46 -32.48,33.68 -15.97,60.95 25.83,42.7 22.4,24.5 80.2,32.15 277.85,36.78 239.45,68.91 237.34,464.43 -0.96,181.95 -10.52,261.46 -157.81,315.83 -108.53,40.07 -310.17,38.21 -423.19,7.98 -774.71,-207.29 -876.76,-1328.81 -329.77,-1755.09 257.08,-200.35 750.64,-242.48 999.85,71.14 157.67,198.39 26.33,264.58 199.24,263.66 18.89,-50.52 -14.39,-417.66 -49.55,-468.02 -33.14,-43.29 -43.97,-43.92 -136.25,-68.37 -51.53,-13.65 -106.07,-27.83 -159.52,-39.06 -744.11,-156.35 -1542.36,194.4 -1536.18,1074.73 3.17,452.05 219.2,757.69 610.21,946.31 451.11,217.58 894.87,77.97 1293.07,-23.04 -44.3,-1012.02 7.91,-663.83 197.99,-811.89z"/>
   <path class="fil0" d="M10867.85 16049.63c-97.14,-26.92 -1394.27,-24.4 -1460.29,6.06 -9.21,233.74 268.36,-111.94 271.93,377.22l1.97 1314.74c-1.19,108.82 0.21,191.75 -77.01,232.29 -136.81,71.84 -195.08,-34.03 -217.18,104.98l1575.8 30.49 37.7 -76.28c2.42,-7.12 11.79,-47.54 14.56,-59.4 18.86,-80.63 91.9,-340.63 65.22,-370.69 -101.13,-113.99 -128.87,145.33 -278.04,295.08 -116.21,116.66 -326.93,94.44 -516.87,90.87 -259.51,-4.88 -297.34,-45.54 -297.27,-307.58 0.04,-158.68 -16.33,-444.79 8.9,-588.06 97.58,-17.8 398.24,-12.66 491.2,9.06 83.24,19.45 103.18,60.69 125.44,130.24 38.52,120.2 -0.28,116.66 134.04,110.36l-5.28 -615.82c-136.46,1.76 -82.84,8.17 -133.92,122.3 -73.7,164.68 -468.45,128.89 -614.47,108.88l-6.22 -610.54c-2.98,-183.59 14.14,-138.62 17.4,-168.05 6.89,-61.72 538.49,-15.47 587.08,0.83 90.45,30.34 128.94,60.8 167.53,150.43 62.92,146.16 -13.9,183.88 155.7,178.17l-47.92 -465.58z"/>
   <path class="fil0" d="M14110.87 17553.04c-12.45,108.14 21.11,245.46 37.63,351.04 24.26,155.1 54.58,160.18 195.15,203.56 399.34,123.25 950.84,68.69 1088.4,-388.17 160.04,-531.55 -418.7,-713.88 -658.52,-858.07 -157.72,-94.81 -373.07,-211.28 -303.85,-483.64 30.08,-118.35 79.55,-176.76 178.08,-218.47 201.23,-85.21 429.62,-46.22 537.49,171.27 58.06,117.05 36.17,214.64 186.16,201.37l-55.97 -450.38c-421,-168.85 -868.47,-87.16 -1052.35,209.74 -94.89,153.15 -92.19,409.51 7.35,555.32 214.39,314.09 673.55,381.82 831.41,603.21 114.85,161.07 37.53,437.44 -75.42,518.99 -149.33,107.82 -396.27,103.2 -545.78,-17.76 -214.13,-173.24 -204.97,-323.08 -274.85,-419.47l-94.93 21.46z"/>
  </g>
  <g>
   <path class="fil1 str0" d="M7796.43 18929.11l-252.71 0 0 -8.66c22.82,-2.09 38.82,-5.9 47.74,-11.54 15.87,-9.96 23.87,-23.86 23.87,-41.57 0,-10.49 -3.54,-24.52 -10.76,-42.23l-6.55 -16.13 -36.85 -90.75 -169.44 0 -20.06 53.12 -9.71 23.73c-11.54,28.2 -17.31,50.36 -17.31,66.49 0,9.58 2.1,18.36 6.43,26.62 4.19,8.13 9.83,14.82 17.04,19.94 10.1,6.95 22.95,11.01 38.69,12.32l0 8.66 -172.32 0 0 -8.66c13.64,-0.78 25.44,-4.06 35.8,-9.96 10.23,-5.9 20.2,-15.48 29.9,-28.46 8.27,-10.49 16.27,-24.13 24.13,-40.65 7.74,-16.53 18.1,-41.31 30.82,-74.36l140.59 -362.74 22.03 0 167.6 404.18c12.59,30.56 22.55,52.33 30.03,65.44 7.34,13.11 15.47,22.95 24.13,29.64 6.16,4.59 13.24,8.13 21.11,10.62 8,2.36 19.94,4.46 35.8,6.29l0 8.66zm-241.3 -226.61l-80.65 -199.34 -76.59 199.34 157.24 0zm416.12 -29.9l0 135.99c0,26.23 1.44,45.64 4.45,58.23 3.02,12.72 8.4,23.21 16.4,31.34 6.95,7.21 15.08,12.46 24.26,16 9.18,3.41 21.11,5.51 36.19,6.29l0 8.66 -245.36 0 0 -8.66c14.82,-0.78 26.75,-2.88 35.93,-6.29 9.05,-3.54 17.05,-8.79 24,-16 8.13,-8.26 13.64,-18.62 16.52,-31.21 2.76,-12.59 4.2,-32 4.2,-58.49l0 -283.53c0,-26.49 -1.44,-45.9 -4.2,-58.49 -2.88,-12.59 -8.39,-22.95 -16.52,-31.21 -6.95,-7.47 -14.95,-12.85 -24.26,-16.13 -9.18,-3.28 -21.12,-5.38 -35.67,-6.16l0 -8.66 185.3 0c30.95,0 51.28,0.13 61.11,0.39 39.74,1.84 70.82,7.22 93.38,16.13 25.44,10.23 45.11,25.58 59.01,46.04 14.03,20.32 20.98,44.06 20.98,70.94 0,40 -15.08,72 -45.37,96.13 -9.18,7.21 -19.41,13.11 -30.56,17.7 -11.15,4.59 -26.1,9.05 -44.72,13.12 15.08,6.42 26.36,13.11 33.57,19.93 5.91,5.38 11.15,12.2 16,20.2 4.72,8.13 11.94,22.42 21.51,42.88 22.82,46.95 40,81.31 51.67,102.95 11.67,21.64 21.51,37.37 29.38,47.08 6.42,8 12.59,13.5 18.62,16.52 6.03,3.15 14.29,5.12 24.78,6.16l0 8.66 -126.81 0c-6.43,-14.03 -10.49,-23.08 -12.33,-26.88l-26.88 -61.12c-16.26,-36.58 -32.52,-68.98 -48.92,-97.04 -16.39,-27.93 -31.47,-47.08 -45.11,-57.31 -6.95,-5.11 -14.43,-8.79 -22.29,-10.88 -8,-2.23 -17.84,-3.28 -29.38,-3.28l-18.88 0zm0 -8.66l14.68 0c32,0 54.95,-1.83 68.72,-5.38 13.77,-3.67 26.76,-11.01 38.82,-22.29 27.15,-25.7 40.65,-57.57 40.65,-95.47 0,-20.33 -3.93,-39.34 -11.8,-57.18 -7.87,-17.83 -18.75,-32.52 -32.65,-44.06 -10.89,-8.79 -23.74,-14.82 -38.69,-18.23 -14.95,-3.54 -36.33,-5.25 -63.87,-5.25l-15.86 0 0 247.86zm552.76 -247.86c-16.13,0 -33.44,0.53 -51.93,1.58 -39.6,1.96 -68.98,6.95 -88.39,14.95 -19.41,8 -35.41,21.64 -47.87,41.18 -11.67,17.96 -20.45,42.35 -26.62,73.04l-8.65 -0.78 7.08 -141.77 519.32 0 7.08 141.77 -8.65 0.78c-6.95,-35.54 -17.71,-62.55 -32.53,-80.91 -14.68,-18.36 -36.19,-31.48 -64.39,-39.48 -23.73,-6.95 -64.13,-10.36 -121.04,-10.36l0 392.38c0,26.23 1.44,45.64 4.46,58.36 2.88,12.72 8.39,23.08 16.39,31.34 7.21,7.48 15.34,12.85 24.52,16.13 9.05,3.28 20.99,5.38 35.67,6.16l0 8.66 -245.49 0 0 -8.66c14.82,-0.78 26.88,-2.88 35.93,-6.16 9.05,-3.28 17.18,-8.65 24.39,-16.13 7.87,-8.26 13.38,-18.62 16.26,-31.21 3.02,-12.59 4.46,-32 4.46,-58.49l0 -392.38zm745.54 -11.8l6.3 127.08 -8.66 0.39c-3.28,-21.64 -8.79,-39.47 -16.52,-53.64 -7.74,-14.03 -18.89,-26.62 -33.44,-37.37 -12.07,-8.92 -26.36,-15.35 -42.76,-19.02 -16.39,-3.8 -38.29,-5.64 -65.44,-5.64l-88.12 0 0 231.34 23.21 0c23.47,0 41.05,-1.58 52.85,-4.59 11.93,-3.15 21.51,-8.53 28.98,-16.53 7.21,-7.34 12.59,-16.13 16.13,-26.22 3.41,-10.1 6.3,-25.05 8.66,-44.72l8.65 0.39 -1.57 205.76 -8.66 0c-2.36,-19.8 -5.77,-35.67 -10.23,-47.73 -4.46,-12.07 -10.75,-22.3 -18.75,-30.69 -7.74,-8.26 -17.7,-14.3 -30.16,-18.1 -12.33,-3.8 -28.07,-5.77 -47.08,-5.77l-22.03 0 0 88c0,35.01 0.91,60.58 2.75,76.58 1.7,16 5.25,29.38 10.36,40.13 8.79,18.36 22.16,31.87 40.13,40.53 17.97,8.52 41.7,12.85 71.08,12.85 30.69,0 56.39,-3.94 77.11,-11.67 20.72,-7.87 37.51,-19.94 50.62,-36.33 9.18,-11.02 16.66,-23.61 22.43,-37.64 5.63,-14.03 11.01,-32.65 15.86,-55.73l8.66 0.39 -4.72 152.78 -458.74 0 0 -8.66c14.69,-0.78 26.63,-2.88 35.67,-6.16 9.18,-3.28 17.32,-8.65 24.53,-16.13 8,-8.26 13.51,-18.75 16.39,-31.34 3.02,-12.72 4.46,-32.13 4.46,-58.36l0 -283.53c0,-26.23 -1.44,-45.64 -4.46,-58.36 -2.88,-12.72 -8.39,-23.08 -16.39,-31.34 -6.95,-7.47 -14.95,-12.85 -24.13,-16.13 -9.05,-3.28 -21.12,-5.38 -36.07,-6.16l0 -8.66 413.1 0zm95.21 522.47l1.18 -158.94 9.05 1.57c10.75,40.39 23.61,72.13 38.56,95.34 27.93,42.88 63.21,64.39 105.57,64.39 29.63,0 54.03,-9.84 73.3,-29.64 19.28,-19.67 28.86,-44.72 28.86,-74.88 0,-13.11 -2.1,-26.49 -6.43,-40 -4.2,-13.64 -9.84,-25.31 -17.05,-35.01 -7.47,-9.97 -17.97,-19.54 -31.47,-28.85 -13.51,-9.18 -34.1,-20.86 -61.9,-35.02 -24.53,-12.2 -43.15,-22.69 -56.13,-31.08 -12.98,-8.52 -23.48,-17.05 -31.47,-25.7 -22.17,-24.13 -33.18,-53.51 -33.18,-88.13 0,-21.25 4.32,-41.7 12.98,-61.51 8.52,-19.67 20.59,-36.58 36.06,-50.75 27.28,-25.05 59.67,-37.64 96.92,-37.64 12.19,0 23.34,1.18 33.7,3.55 10.23,2.49 24,7.21 41.31,14.42 12.85,5.12 21.64,8.39 26.23,9.71 4.72,1.44 8.78,2.09 12.46,2.09 8.91,0 14.95,-6.42 18.09,-19.54l8.66 0 2.36 152.65 -8.66 0c-6.95,-24.39 -12.85,-43.14 -17.96,-56.13 -4.98,-12.98 -10.89,-24.91 -17.84,-35.93 -12.59,-20.06 -26.49,-34.88 -41.57,-44.59 -15.21,-9.57 -32.65,-14.42 -52.46,-14.42 -28.72,0 -51.4,9.7 -68.19,29.24 -6.95,8 -12.33,17.44 -16.26,28.2 -4.07,10.75 -6.03,21.5 -6.03,32.39 0,42.88 27.54,77.37 82.75,103.6l54.16 26.23c41.83,19.8 72,41.7 90.36,65.57 21.11,26.75 31.6,57.83 31.6,93.24 0,23.48 -4.72,45.9 -14.29,67.28 -13.38,29.77 -33.44,52.85 -60.07,68.98 -26.75,16.13 -58.22,24.26 -94.55,24.26 -33.18,0 -65.05,-6.56 -95.6,-19.8 -16,-7.08 -25.44,-11.02 -28.59,-12.07 -3.02,-1.05 -6.56,-1.57 -10.36,-1.57 -12.33,0 -20.85,6.16 -25.44,18.49l-8.66 0zm603.64 0l1.18 -158.94 9.05 1.57c10.75,40.39 23.61,72.13 38.56,95.34 27.93,42.88 63.21,64.39 105.57,64.39 29.63,0 54.03,-9.84 73.3,-29.64 19.28,-19.67 28.86,-44.72 28.86,-74.88 0,-13.11 -2.1,-26.49 -6.43,-40 -4.2,-13.64 -9.84,-25.31 -17.05,-35.01 -7.47,-9.97 -17.97,-19.54 -31.47,-28.85 -13.51,-9.18 -34.1,-20.86 -61.9,-35.02 -24.53,-12.2 -43.15,-22.69 -56.13,-31.08 -12.98,-8.52 -23.48,-17.05 -31.47,-25.7 -22.17,-24.13 -33.18,-53.51 -33.18,-88.13 0,-21.25 4.32,-41.7 12.98,-61.51 8.52,-19.67 20.59,-36.58 36.06,-50.75 27.28,-25.05 59.67,-37.64 96.92,-37.64 12.19,0 23.34,1.18 33.7,3.55 10.23,2.49 24,7.21 41.31,14.42 12.85,5.12 21.64,8.39 26.23,9.71 4.72,1.44 8.78,2.09 12.46,2.09 8.91,0 14.95,-6.42 18.09,-19.54l8.66 0 2.36 152.65 -8.66 0c-6.95,-24.39 -12.85,-43.14 -17.96,-56.13 -4.98,-12.98 -10.89,-24.91 -17.84,-35.93 -12.59,-20.06 -26.49,-34.88 -41.57,-44.59 -15.21,-9.57 -32.65,-14.42 -52.46,-14.42 -28.72,0 -51.4,9.7 -68.19,29.24 -6.95,8 -12.33,17.44 -16.26,28.2 -4.07,10.75 -6.03,21.5 -6.03,32.39 0,42.88 27.54,77.37 82.75,103.6l54.16 26.23c41.83,19.8 72,41.7 90.36,65.57 21.11,26.75 31.6,57.83 31.6,93.24 0,23.48 -4.72,45.9 -14.29,67.28 -13.38,29.77 -33.44,52.85 -60.07,68.98 -26.75,16.13 -58.22,24.26 -94.55,24.26 -33.18,0 -65.05,-6.56 -95.6,-19.8 -16,-7.08 -25.44,-11.02 -28.59,-12.07 -3.02,-1.05 -6.56,-1.57 -10.36,-1.57 -12.33,0 -20.85,6.16 -25.44,18.49l-8.66 0zm628.69 -522.47l0 8.66c-14.69,0.78 -26.62,2.88 -35.93,6.16 -9.18,3.28 -17.31,8.66 -24.13,16.13 -8.52,8.66 -14.16,19.41 -16.79,32.26 -2.75,12.85 -4.06,34.89 -4.06,66.1l0 217.56c0,35.41 1.31,60.98 4.06,76.72 2.63,15.74 8.13,30.29 16.4,43.54 12.32,20.32 27.54,35.01 45.5,44.06 18.1,9.05 40.92,13.64 68.46,13.64 26.62,0 52.06,-4.07 76.32,-12.07 24.26,-8.13 44.46,-19.27 60.72,-33.7 9.97,-8.92 17.31,-18.62 22.03,-29.24 4.86,-10.49 8,-23.74 9.45,-39.87 1.04,-10.49 1.57,-35.41 1.57,-74.62l0 -214.81c0,-26.36 -1.44,-45.9 -4.46,-58.49 -2.88,-12.46 -8.39,-22.82 -16.39,-31.08 -7.08,-7.47 -15.21,-12.85 -24.39,-16.13 -9.05,-3.28 -20.99,-5.38 -35.54,-6.16l0 -8.66 177.17 0 0 8.66c-14.56,0.78 -26.36,2.75 -35.54,6.16 -9.05,3.28 -17.18,8.66 -24.39,16.13 -7.87,8.13 -13.38,18.62 -16.27,31.34 -3.01,12.59 -4.45,32 -4.45,58.23l0 242.48c0,35.8 -2.76,62.29 -8.27,79.34 -5.5,17.05 -16.39,32.53 -32.78,46.69 -37.38,32.26 -90.75,48.39 -160.26,48.39 -72.39,0 -125.76,-15.21 -160.12,-45.77 -22.29,-19.41 -35.54,-45.11 -39.87,-76.85 -1.57,-11.28 -2.36,-31.6 -2.36,-61.11l0 -233.17c0,-26.49 -1.44,-45.9 -4.19,-58.49 -2.89,-12.46 -8.4,-22.95 -16.53,-31.08 -6.95,-7.47 -14.95,-12.85 -24,-16.13 -9.18,-3.41 -21.11,-5.38 -35.93,-6.16l0 -8.66 244.97 0zm353.04 524.83l0 -8.66c14.82,-0.78 26.75,-2.88 35.93,-6.29 9.05,-3.54 17.05,-8.79 24,-16 8.13,-8.26 13.64,-18.62 16.52,-31.21 2.76,-12.59 4.2,-32 4.2,-58.49l0 -283.53c0,-26.49 -1.44,-45.9 -4.2,-58.49 -2.88,-12.59 -8.39,-22.95 -16.52,-31.21 -6.95,-7.47 -14.95,-12.85 -24.26,-16.13 -9.18,-3.28 -21.12,-5.38 -35.67,-6.16l0 -8.66 252.05 0c25.57,0 42.23,0.26 50.23,0.79 29.11,2.36 53.24,9.18 72.39,20.85 16.65,10.23 29.51,23.74 38.56,40.39 9.04,16.66 13.63,35.41 13.63,56.26 0,33.7 -10.36,61.24 -31.08,82.88 -7.34,7.87 -15.86,14.56 -25.31,19.8 -9.44,5.25 -23.08,11.15 -40.91,17.58 24.52,4.06 43.67,8.52 57.17,13.37 13.64,4.86 25.97,11.68 36.99,20.33 16.39,13.38 29.11,29.9 38.29,49.7 9.05,19.81 13.64,41.31 13.64,64.26 0,23.35 -4.72,44.59 -14.03,64 -9.31,19.28 -22.3,34.88 -38.95,46.56 -15.08,10.49 -33.05,17.83 -53.9,21.9 -20.85,4.06 -50.23,6.16 -88.13,6.16l-280.64 0zm164.06 -513.03l0 228.98 31.21 0c14.55,0 29.64,-1.05 45.37,-3.15 13.51,-1.97 24.53,-4.46 32.92,-7.21 8.26,-2.89 15.87,-6.69 22.82,-11.67 13.11,-9.71 23.21,-22.3 30.16,-37.51 7.08,-15.34 10.62,-32.26 10.62,-50.75 0,-19.54 -3.67,-38.03 -11.01,-55.61 -7.22,-17.7 -16.92,-31.34 -28.99,-41.04 -10.49,-8.53 -22.55,-14.3 -35.93,-17.45 -13.51,-3.01 -33.96,-4.59 -61.37,-4.59l-35.8 0zm0 240.78l0 158.29c0,19.14 1.31,34.62 4.06,46.42 2.62,11.8 7.08,21.77 13.25,30.03 13.11,17.18 35.54,25.71 67.4,25.71 41.31,0 73.97,-11.28 97.97,-33.84 24,-22.55 36.06,-53.24 36.06,-92.19 0,-22.29 -3.67,-42.88 -11.15,-62.03 -7.47,-19.02 -17.44,-33.7 -30.03,-43.93 -23.08,-19.02 -59.27,-28.46 -108.58,-28.46l-68.98 0zm365.36 272.25l0 -8.66c25.83,0 45.77,-7.34 59.93,-21.9 7.87,-8.26 13.38,-18.75 16.26,-31.47 3.02,-12.72 4.46,-32.13 4.46,-58.36l0 -283.79c0,-27.14 -1.57,-47.21 -4.85,-60.19 -3.15,-12.99 -9.05,-23.61 -17.84,-31.74 -7.21,-6.69 -15.21,-11.54 -24,-14.69 -8.78,-3.01 -20.19,-4.85 -33.96,-5.37l0 -8.66 244.71 0 0 8.66c-14.03,0.78 -25.57,2.75 -34.62,5.77 -8.92,3.01 -16.79,8 -23.74,14.55 -8.66,8.53 -14.56,19.15 -17.7,32 -3.02,12.85 -4.59,32.66 -4.59,59.67l0 221.89c0,34.1 0.91,59.54 2.62,76.2 1.83,16.65 5.38,30.29 10.49,40.78 8.92,18.49 22.16,32 39.87,40.66 17.7,8.52 41.04,12.85 70.29,12.85 30.42,0 56.13,-4.07 76.98,-12.07 20.85,-8.13 38.03,-20.59 51.28,-37.5 8.91,-11.54 16.39,-24.66 22.16,-39.35 5.64,-14.55 11.01,-33.83 15.87,-57.7l9.44 0.79 -5.51 157.63 -457.55 0zm724.56 -524.83l0 8.66c-14.56,0.78 -26.36,2.88 -35.54,6.16 -9.05,3.28 -17.18,8.66 -24.39,16.13 -9.97,10.23 -16.13,24.52 -18.36,42.75 -1.58,13.64 -2.36,29.25 -2.36,46.95l0 283.53c0,21.38 1.05,38.16 3.01,50.49 2.1,12.2 5.38,22.16 10.1,29.51 6.56,10.36 15.21,17.96 25.7,22.95 10.5,4.98 24.4,8 41.84,9.04l0 8.66 -244.71 0 0 -8.66c14.82,-0.78 26.75,-2.88 35.93,-6.29 9.05,-3.54 17.05,-8.79 24,-16 8.13,-8.26 13.64,-18.62 16.52,-31.21 2.76,-12.59 4.2,-32 4.2,-58.49l0 -283.53c0,-26.49 -1.44,-45.9 -4.2,-58.49 -2.88,-12.59 -8.39,-22.95 -16.52,-31.21 -6.95,-7.47 -14.95,-12.85 -24.26,-16.13 -9.18,-3.28 -21.12,-5.38 -35.67,-6.16l0 -8.66 244.71 0zm700.95 8.66c-14.56,0.78 -26.23,2.75 -35.15,5.9 -8.79,3.28 -16.92,8.52 -24.39,16 -5.64,5.37 -9.84,11.41 -12.72,17.96 -2.76,6.56 -4.72,14.82 -5.77,24.79 -1.71,13.38 -2.63,29.11 -2.63,47.34l0 283.53c0,26.49 1.58,46.03 4.59,58.88 3.15,12.85 8.66,23.08 16.53,30.82 14.16,13.64 33.96,20.98 59.54,22.29l0 8.66 -245.11 0 0 -8.66c14.82,-0.78 26.75,-2.88 35.93,-6.29 9.05,-3.54 17.18,-8.79 24.4,-16 7.87,-8.26 13.37,-18.75 16.26,-31.34 3.01,-12.72 4.46,-32.13 4.46,-58.36l0 -343.98 -198.03 464.63 -8 0 -196.84 -457.68 0 337.03c0,26.49 1.44,45.9 4.46,58.49 2.88,12.59 8.39,22.95 16.26,31.21 7.21,7.48 15.34,12.85 24.39,16.13 9.18,3.28 20.99,5.38 35.67,6.16l0 8.66 -177.17 0 0 -8.66c14.56,-0.78 26.36,-2.88 35.54,-6.16 9.05,-3.28 17.18,-8.65 24.39,-16.13 7.87,-8.26 13.38,-18.75 16.26,-31.34 3.02,-12.72 4.46,-32.13 4.46,-58.36l0 -283.53c0,-11.8 -0.39,-22.95 -1.18,-33.57 -1.31,-18.89 -4.19,-32.79 -8.78,-41.44 -6.43,-12.07 -15.22,-20.98 -26.36,-26.75 -11.15,-5.77 -25.97,-9.18 -44.33,-10.23l0 -8.66 166.68 0 166.29 411.13 172.45 -411.13 157.9 0 0 8.66zm573.87 516.17l-252.71 0 0 -8.66c22.82,-2.09 38.82,-5.9 47.74,-11.54 15.87,-9.96 23.87,-23.86 23.87,-41.57 0,-10.49 -3.54,-24.52 -10.76,-42.23l-6.55 -16.13 -36.85 -90.75 -169.44 0 -20.06 53.12 -9.71 23.73c-11.54,28.2 -17.31,50.36 -17.31,66.49 0,9.58 2.1,18.36 6.43,26.62 4.19,8.13 9.83,14.82 17.04,19.94 10.1,6.95 22.95,11.01 38.69,12.32l0 8.66 -172.32 0 0 -8.66c13.64,-0.78 25.44,-4.06 35.8,-9.96 10.23,-5.9 20.2,-15.48 29.9,-28.46 8.27,-10.49 16.27,-24.13 24.13,-40.65 7.74,-16.53 18.1,-41.31 30.82,-74.36l140.59 -362.74 22.03 0 167.6 404.18c12.59,30.56 22.55,52.33 30.03,65.44 7.34,13.11 15.47,22.95 24.13,29.64 6.16,4.59 13.24,8.13 21.11,10.62 8,2.36 19.94,4.46 35.8,6.29l0 8.66zm-241.3 -226.61l-80.65 -199.34 -76.59 199.34 157.24 0zm524.7 239.99l-14.16 39.21c23.6,4.19 41.05,10.88 52.32,20.19 11.28,9.45 16.92,21.64 16.92,36.72 0,16.66 -7.61,30.82 -22.69,42.36 -15.08,11.54 -33.7,17.31 -55.73,17.31 -23.35,0 -46.95,-6.82 -71.08,-20.46l5.51 -8.65c19.93,7.47 37.11,11.15 51.4,11.15 12.07,0 22.17,-4.07 30.56,-12.33 8.26,-8.26 12.46,-18.23 12.46,-30.03 0,-9.84 -2.89,-17.84 -8.52,-24.13 -5.64,-6.3 -15.74,-12.72 -30.17,-19.15 -1.83,-0.65 -4.33,-1.84 -7.73,-3.41l18.09 -50.36c-51.01,-5.64 -94.16,-20.59 -129.57,-44.98 -33.04,-22.82 -58.35,-53.24 -76.06,-91.14 -17.7,-38.03 -26.49,-80.65 -26.49,-128.13 0,-46.95 8.4,-90.22 25.31,-129.83 16.92,-39.6 40.53,-71.47 70.82,-95.6 23.21,-18.36 51.14,-33.05 83.54,-43.93 32.39,-10.89 64.91,-16.4 97.43,-16.4 30.95,0 63.74,6.04 98.36,17.97l31.47 10.36c6.17,2.23 11.55,3.41 16.13,3.41 6.43,0 11.68,-2.62 15.74,-8 1.84,-2.62 3.94,-6.82 6.56,-12.72l9.44 0 4.72 171.53 -8.65 0c-2.76,-7.47 -4.99,-13.11 -6.56,-16.91 -8.92,-24.66 -16.26,-42.89 -21.9,-54.95 -10.1,-21.64 -24.52,-41.31 -43.54,-59.28 -14.43,-13.51 -29.24,-23.47 -44.59,-29.64 -15.47,-6.16 -32.78,-9.18 -52.06,-9.18 -28.98,0 -54.16,6.3 -75.41,18.89 -18.75,11.01 -36.19,26.88 -52.32,47.6 -16.26,20.59 -29.38,44.2 -39.74,70.69 -14.56,37.24 -21.9,79.6 -21.9,127.07 0,40.27 4.98,76.59 14.95,108.98 10.1,32.4 24.66,59.41 43.93,81.31 35.41,40.52 82.36,60.85 140.85,60.85 29.24,0 55.47,-5.11 78.82,-15.21 23.34,-10.23 41.44,-24.52 54.29,-43.15 14.82,-21.24 25.57,-50.09 32.26,-86.42l8.65 1.57c-4.85,40.53 -15.86,72.66 -33.04,96.52 -16.4,22.56 -38.82,39.87 -67.41,52.07 -28.59,12.19 -61.24,18.23 -98.09,18.23l-13.12 0zm788.95 -13.38l-252.71 0 0 -8.66c22.82,-2.09 38.82,-5.9 47.74,-11.54 15.87,-9.96 23.87,-23.86 23.87,-41.57 0,-10.49 -3.54,-24.52 -10.76,-42.23l-6.55 -16.13 -36.85 -90.75 -169.44 0 -20.06 53.12 -9.71 23.73c-11.54,28.2 -17.31,50.36 -17.31,66.49 0,9.58 2.1,18.36 6.43,26.62 4.19,8.13 9.83,14.82 17.04,19.94 10.1,6.95 22.95,11.01 38.69,12.32l0 8.66 -172.32 0 0 -8.66c13.64,-0.78 25.44,-4.06 35.8,-9.96 10.23,-5.9 20.2,-15.48 29.9,-28.46 8.27,-10.49 16.27,-24.13 24.13,-40.65 7.74,-16.53 18.1,-41.31 30.82,-74.36l140.59 -362.74 22.03 0 167.6 404.18c12.59,30.56 22.55,52.33 30.03,65.44 7.34,13.11 15.47,22.95 24.13,29.64 6.16,4.59 13.24,8.13 21.11,10.62 8,2.36 19.94,4.46 35.8,6.29l0 8.66zm-241.3 -226.61l-80.65 -199.34 -76.59 199.34 157.24 0zm33.44 -435.13l8.66 0c0.79,5.64 1.18,9.83 1.18,12.33 0,16 -4.59,29.11 -13.64,39.34 -9.18,10.1 -20.98,15.21 -35.67,15.21 -10.23,0 -19.8,-1.57 -28.85,-4.85 -8.92,-3.15 -23.34,-9.97 -43.02,-20.59 -10.36,-5.64 -18.88,-8.39 -25.83,-8.39 -16.66,0 -25.97,8.39 -28.06,25.18l-8.66 0c-0.26,-3.54 -0.39,-6.43 -0.39,-8.4 0,-17.44 4.19,-31.34 12.72,-41.57 8.39,-10.23 19.93,-15.34 34.62,-15.34 13.9,0 28.72,4.19 44.59,12.46l17.31 9.31c15.47,8 28.06,12.06 38.16,12.06 7.87,0 13.77,-1.97 17.7,-5.77 3.81,-3.8 6.82,-10.75 9.18,-20.98zm236.32 402.6c0,-43.01 9.18,-83.01 27.67,-119.73 18.49,-36.85 45.38,-68.85 80.65,-96.26 26.5,-20.32 54.95,-35.8 85.38,-46.68 30.55,-10.89 61.24,-16.4 92.19,-16.4 39.47,0 77.64,8.66 114.62,25.97 36.85,17.31 69.11,41.7 96.78,73.18 45.11,51.27 67.67,109.5 67.67,174.94 0,32.79 -5.9,64.39 -17.7,94.95 -11.81,30.42 -28.99,58.22 -51.54,83.4 -27.67,31.22 -60.33,55.48 -98.1,72.66 -37.77,17.18 -77.37,25.7 -118.55,25.7 -40.78,0 -79.73,-8.39 -116.85,-25.05 -37.24,-16.65 -69.24,-40.13 -96.12,-70.68 -21.25,-23.87 -37.64,-50.89 -49.05,-81.31 -11.41,-30.3 -17.05,-61.9 -17.05,-94.69zm92.85 5.51c0,74.49 20.2,137.18 60.72,188.19 18.23,22.82 37.51,39.47 57.96,49.83 20.33,10.36 43.94,15.61 70.56,15.61 26.88,0 50.62,-5.11 70.95,-15.34 20.45,-10.36 39.86,-27.02 58.35,-50.1 40.53,-51.28 60.72,-114.49 60.72,-189.63 0,-41.31 -5.64,-80.39 -16.78,-117.24 -11.15,-36.85 -26.76,-68.06 -47.08,-93.64 -16.4,-21.11 -34.63,-36.45 -54.82,-46.03 -20.07,-9.57 -43.93,-14.42 -71.34,-14.42 -27.15,0 -50.75,4.72 -70.56,14.29 -19.93,9.44 -38.29,24.79 -55.21,46.16 -20.19,25.31 -35.93,56.53 -46.95,93.51 -11.01,36.85 -16.52,76.58 -16.52,118.81z"/>
   <path id="_1" class="fil2" d="M7796.43 18929.11l-252.71 0 0 -8.66c22.82,-2.09 38.82,-5.9 47.74,-11.54 15.87,-9.96 23.87,-23.86 23.87,-41.57 0,-10.49 -3.54,-24.52 -10.76,-42.23l-6.55 -16.13 -36.85 -90.75 -169.44 0 -20.06 53.12 -9.71 23.73c-11.54,28.2 -17.31,50.36 -17.31,66.49 0,9.58 2.1,18.36 6.43,26.62 4.19,8.13 9.83,14.82 17.04,19.94 10.1,6.95 22.95,11.01 38.69,12.32l0 8.66 -172.32 0 0 -8.66c13.64,-0.78 25.44,-4.06 35.8,-9.96 10.23,-5.9 20.2,-15.48 29.9,-28.46 8.27,-10.49 16.27,-24.13 24.13,-40.65 7.74,-16.53 18.1,-41.31 30.82,-74.36l140.59 -362.74 22.03 0 167.6 404.18c12.59,30.56 22.55,52.33 30.03,65.44 7.34,13.11 15.47,22.95 24.13,29.64 6.16,4.59 13.24,8.13 21.11,10.62 8,2.36 19.94,4.46 35.8,6.29l0 8.66zm-241.3 -226.61l-80.65 -199.34 -76.59 199.34 157.24 0zm416.12 -29.9l0 135.99c0,26.23 1.44,45.64 4.45,58.23 3.02,12.72 8.4,23.21 16.4,31.34 6.95,7.21 15.08,12.46 24.26,16 9.18,3.41 21.11,5.51 36.19,6.29l0 8.66 -245.36 0 0 -8.66c14.82,-0.78 26.75,-2.88 35.93,-6.29 9.05,-3.54 17.05,-8.79 24,-16 8.13,-8.26 13.64,-18.62 16.52,-31.21 2.76,-12.59 4.2,-32 4.2,-58.49l0 -283.53c0,-26.49 -1.44,-45.9 -4.2,-58.49 -2.88,-12.59 -8.39,-22.95 -16.52,-31.21 -6.95,-7.47 -14.95,-12.85 -24.26,-16.13 -9.18,-3.28 -21.12,-5.38 -35.67,-6.16l0 -8.66 185.3 0c30.95,0 51.28,0.13 61.11,0.39 39.74,1.84 70.82,7.22 93.38,16.13 25.44,10.23 45.11,25.58 59.01,46.04 14.03,20.32 20.98,44.06 20.98,70.94 0,40 -15.08,72 -45.37,96.13 -9.18,7.21 -19.41,13.11 -30.56,17.7 -11.15,4.59 -26.1,9.05 -44.72,13.12 15.08,6.42 26.36,13.11 33.57,19.93 5.91,5.38 11.15,12.2 16,20.2 4.72,8.13 11.94,22.42 21.51,42.88 22.82,46.95 40,81.31 51.67,102.95 11.67,21.64 21.51,37.37 29.38,47.08 6.42,8 12.59,13.5 18.62,16.52 6.03,3.15 14.29,5.12 24.78,6.16l0 8.66 -126.81 0c-6.43,-14.03 -10.49,-23.08 -12.33,-26.88l-26.88 -61.12c-16.26,-36.58 -32.52,-68.98 -48.92,-97.04 -16.39,-27.93 -31.47,-47.08 -45.11,-57.31 -6.95,-5.11 -14.43,-8.79 -22.29,-10.88 -8,-2.23 -17.84,-3.28 -29.38,-3.28l-18.88 0zm0 -8.66l14.68 0c32,0 54.95,-1.83 68.72,-5.38 13.77,-3.67 26.76,-11.01 38.82,-22.29 27.15,-25.7 40.65,-57.57 40.65,-95.47 0,-20.33 -3.93,-39.34 -11.8,-57.18 -7.87,-17.83 -18.75,-32.52 -32.65,-44.06 -10.89,-8.79 -23.74,-14.82 -38.69,-18.23 -14.95,-3.54 -36.33,-5.25 -63.87,-5.25l-15.86 0 0 247.86zm552.76 -247.86c-16.13,0 -33.44,0.53 -51.93,1.58 -39.6,1.96 -68.98,6.95 -88.39,14.95 -19.41,8 -35.41,21.64 -47.87,41.18 -11.67,17.96 -20.45,42.35 -26.62,73.04l-8.65 -0.78 7.08 -141.77 519.32 0 7.08 141.77 -8.65 0.78c-6.95,-35.54 -17.71,-62.55 -32.53,-80.91 -14.68,-18.36 -36.19,-31.48 -64.39,-39.48 -23.73,-6.95 -64.13,-10.36 -121.04,-10.36l0 392.38c0,26.23 1.44,45.64 4.46,58.36 2.88,12.72 8.39,23.08 16.39,31.34 7.21,7.48 15.34,12.85 24.52,16.13 9.05,3.28 20.99,5.38 35.67,6.16l0 8.66 -245.49 0 0 -8.66c14.82,-0.78 26.88,-2.88 35.93,-6.16 9.05,-3.28 17.18,-8.65 24.39,-16.13 7.87,-8.26 13.38,-18.62 16.26,-31.21 3.02,-12.59 4.46,-32 4.46,-58.49l0 -392.38zm745.54 -11.8l6.3 127.08 -8.66 0.39c-3.28,-21.64 -8.79,-39.47 -16.52,-53.64 -7.74,-14.03 -18.89,-26.62 -33.44,-37.37 -12.07,-8.92 -26.36,-15.35 -42.76,-19.02 -16.39,-3.8 -38.29,-5.64 -65.44,-5.64l-88.12 0 0 231.34 23.21 0c23.47,0 41.05,-1.58 52.85,-4.59 11.93,-3.15 21.51,-8.53 28.98,-16.53 7.21,-7.34 12.59,-16.13 16.13,-26.22 3.41,-10.1 6.3,-25.05 8.66,-44.72l8.65 0.39 -1.57 205.76 -8.66 0c-2.36,-19.8 -5.77,-35.67 -10.23,-47.73 -4.46,-12.07 -10.75,-22.3 -18.75,-30.69 -7.74,-8.26 -17.7,-14.3 -30.16,-18.1 -12.33,-3.8 -28.07,-5.77 -47.08,-5.77l-22.03 0 0 88c0,35.01 0.91,60.58 2.75,76.58 1.7,16 5.25,29.38 10.36,40.13 8.79,18.36 22.16,31.87 40.13,40.53 17.97,8.52 41.7,12.85 71.08,12.85 30.69,0 56.39,-3.94 77.11,-11.67 20.72,-7.87 37.51,-19.94 50.62,-36.33 9.18,-11.02 16.66,-23.61 22.43,-37.64 5.63,-14.03 11.01,-32.65 15.86,-55.73l8.66 0.39 -4.72 152.78 -458.74 0 0 -8.66c14.69,-0.78 26.63,-2.88 35.67,-6.16 9.18,-3.28 17.32,-8.65 24.53,-16.13 8,-8.26 13.51,-18.75 16.39,-31.34 3.02,-12.72 4.46,-32.13 4.46,-58.36l0 -283.53c0,-26.23 -1.44,-45.64 -4.46,-58.36 -2.88,-12.72 -8.39,-23.08 -16.39,-31.34 -6.95,-7.47 -14.95,-12.85 -24.13,-16.13 -9.05,-3.28 -21.12,-5.38 -36.07,-6.16l0 -8.66 413.1 0zm95.21 522.47l1.18 -158.94 9.05 1.57c10.75,40.39 23.61,72.13 38.56,95.34 27.93,42.88 63.21,64.39 105.57,64.39 29.63,0 54.03,-9.84 73.3,-29.64 19.28,-19.67 28.86,-44.72 28.86,-74.88 0,-13.11 -2.1,-26.49 -6.43,-40 -4.2,-13.64 -9.84,-25.31 -17.05,-35.01 -7.47,-9.97 -17.97,-19.54 -31.47,-28.85 -13.51,-9.18 -34.1,-20.86 -61.9,-35.02 -24.53,-12.2 -43.15,-22.69 -56.13,-31.08 -12.98,-8.52 -23.48,-17.05 -31.47,-25.7 -22.17,-24.13 -33.18,-53.51 -33.18,-88.13 0,-21.25 4.32,-41.7 12.98,-61.51 8.52,-19.67 20.59,-36.58 36.06,-50.75 27.28,-25.05 59.67,-37.64 96.92,-37.64 12.19,0 23.34,1.18 33.7,3.55 10.23,2.49 24,7.21 41.31,14.42 12.85,5.12 21.64,8.39 26.23,9.71 4.72,1.44 8.78,2.09 12.46,2.09 8.91,0 14.95,-6.42 18.09,-19.54l8.66 0 2.36 152.65 -8.66 0c-6.95,-24.39 -12.85,-43.14 -17.96,-56.13 -4.98,-12.98 -10.89,-24.91 -17.84,-35.93 -12.59,-20.06 -26.49,-34.88 -41.57,-44.59 -15.21,-9.57 -32.65,-14.42 -52.46,-14.42 -28.72,0 -51.4,9.7 -68.19,29.24 -6.95,8 -12.33,17.44 -16.26,28.2 -4.07,10.75 -6.03,21.5 -6.03,32.39 0,42.88 27.54,77.37 82.75,103.6l54.16 26.23c41.83,19.8 72,41.7 90.36,65.57 21.11,26.75 31.6,57.83 31.6,93.24 0,23.48 -4.72,45.9 -14.29,67.28 -13.38,29.77 -33.44,52.85 -60.07,68.98 -26.75,16.13 -58.22,24.26 -94.55,24.26 -33.18,0 -65.05,-6.56 -95.6,-19.8 -16,-7.08 -25.44,-11.02 -28.59,-12.07 -3.02,-1.05 -6.56,-1.57 -10.36,-1.57 -12.33,0 -20.85,6.16 -25.44,18.49l-8.66 0zm603.64 0l1.18 -158.94 9.05 1.57c10.75,40.39 23.61,72.13 38.56,95.34 27.93,42.88 63.21,64.39 105.57,64.39 29.63,0 54.03,-9.84 73.3,-29.64 19.28,-19.67 28.86,-44.72 28.86,-74.88 0,-13.11 -2.1,-26.49 -6.43,-40 -4.2,-13.64 -9.84,-25.31 -17.05,-35.01 -7.47,-9.97 -17.97,-19.54 -31.47,-28.85 -13.51,-9.18 -34.1,-20.86 -61.9,-35.02 -24.53,-12.2 -43.15,-22.69 -56.13,-31.08 -12.98,-8.52 -23.48,-17.05 -31.47,-25.7 -22.17,-24.13 -33.18,-53.51 -33.18,-88.13 0,-21.25 4.32,-41.7 12.98,-61.51 8.52,-19.67 20.59,-36.58 36.06,-50.75 27.28,-25.05 59.67,-37.64 96.92,-37.64 12.19,0 23.34,1.18 33.7,3.55 10.23,2.49 24,7.21 41.31,14.42 12.85,5.12 21.64,8.39 26.23,9.71 4.72,1.44 8.78,2.09 12.46,2.09 8.91,0 14.95,-6.42 18.09,-19.54l8.66 0 2.36 152.65 -8.66 0c-6.95,-24.39 -12.85,-43.14 -17.96,-56.13 -4.98,-12.98 -10.89,-24.91 -17.84,-35.93 -12.59,-20.06 -26.49,-34.88 -41.57,-44.59 -15.21,-9.57 -32.65,-14.42 -52.46,-14.42 -28.72,0 -51.4,9.7 -68.19,29.24 -6.95,8 -12.33,17.44 -16.26,28.2 -4.07,10.75 -6.03,21.5 -6.03,32.39 0,42.88 27.54,77.37 82.75,103.6l54.16 26.23c41.83,19.8 72,41.7 90.36,65.57 21.11,26.75 31.6,57.83 31.6,93.24 0,23.48 -4.72,45.9 -14.29,67.28 -13.38,29.77 -33.44,52.85 -60.07,68.98 -26.75,16.13 -58.22,24.26 -94.55,24.26 -33.18,0 -65.05,-6.56 -95.6,-19.8 -16,-7.08 -25.44,-11.02 -28.59,-12.07 -3.02,-1.05 -6.56,-1.57 -10.36,-1.57 -12.33,0 -20.85,6.16 -25.44,18.49l-8.66 0zm628.69 -522.47l0 8.66c-14.69,0.78 -26.62,2.88 -35.93,6.16 -9.18,3.28 -17.31,8.66 -24.13,16.13 -8.52,8.66 -14.16,19.41 -16.79,32.26 -2.75,12.85 -4.06,34.89 -4.06,66.1l0 217.56c0,35.41 1.31,60.98 4.06,76.72 2.63,15.74 8.13,30.29 16.4,43.54 12.32,20.32 27.54,35.01 45.5,44.06 18.1,9.05 40.92,13.64 68.46,13.64 26.62,0 52.06,-4.07 76.32,-12.07 24.26,-8.13 44.46,-19.27 60.72,-33.7 9.97,-8.92 17.31,-18.62 22.03,-29.24 4.86,-10.49 8,-23.74 9.45,-39.87 1.04,-10.49 1.57,-35.41 1.57,-74.62l0 -214.81c0,-26.36 -1.44,-45.9 -4.46,-58.49 -2.88,-12.46 -8.39,-22.82 -16.39,-31.08 -7.08,-7.47 -15.21,-12.85 -24.39,-16.13 -9.05,-3.28 -20.99,-5.38 -35.54,-6.16l0 -8.66 177.17 0 0 8.66c-14.56,0.78 -26.36,2.75 -35.54,6.16 -9.05,3.28 -17.18,8.66 -24.39,16.13 -7.87,8.13 -13.38,18.62 -16.27,31.34 -3.01,12.59 -4.45,32 -4.45,58.23l0 242.48c0,35.8 -2.76,62.29 -8.27,79.34 -5.5,17.05 -16.39,32.53 -32.78,46.69 -37.38,32.26 -90.75,48.39 -160.26,48.39 -72.39,0 -125.76,-15.21 -160.12,-45.77 -22.29,-19.41 -35.54,-45.11 -39.87,-76.85 -1.57,-11.28 -2.36,-31.6 -2.36,-61.11l0 -233.17c0,-26.49 -1.44,-45.9 -4.19,-58.49 -2.89,-12.46 -8.4,-22.95 -16.53,-31.08 -6.95,-7.47 -14.95,-12.85 -24,-16.13 -9.18,-3.41 -21.11,-5.38 -35.93,-6.16l0 -8.66 244.97 0zm353.04 524.83l0 -8.66c14.82,-0.78 26.75,-2.88 35.93,-6.29 9.05,-3.54 17.05,-8.79 24,-16 8.13,-8.26 13.64,-18.62 16.52,-31.21 2.76,-12.59 4.2,-32 4.2,-58.49l0 -283.53c0,-26.49 -1.44,-45.9 -4.2,-58.49 -2.88,-12.59 -8.39,-22.95 -16.52,-31.21 -6.95,-7.47 -14.95,-12.85 -24.26,-16.13 -9.18,-3.28 -21.12,-5.38 -35.67,-6.16l0 -8.66 252.05 0c25.57,0 42.23,0.26 50.23,0.79 29.11,2.36 53.24,9.18 72.39,20.85 16.65,10.23 29.51,23.74 38.56,40.39 9.04,16.66 13.63,35.41 13.63,56.26 0,33.7 -10.36,61.24 -31.08,82.88 -7.34,7.87 -15.86,14.56 -25.31,19.8 -9.44,5.25 -23.08,11.15 -40.91,17.58 24.52,4.06 43.67,8.52 57.17,13.37 13.64,4.86 25.97,11.68 36.99,20.33 16.39,13.38 29.11,29.9 38.29,49.7 9.05,19.81 13.64,41.31 13.64,64.26 0,23.35 -4.72,44.59 -14.03,64 -9.31,19.28 -22.3,34.88 -38.95,46.56 -15.08,10.49 -33.05,17.83 -53.9,21.9 -20.85,4.06 -50.23,6.16 -88.13,6.16l-280.64 0zm164.06 -513.03l0 228.98 31.21 0c14.55,0 29.64,-1.05 45.37,-3.15 13.51,-1.97 24.53,-4.46 32.92,-7.21 8.26,-2.89 15.87,-6.69 22.82,-11.67 13.11,-9.71 23.21,-22.3 30.16,-37.51 7.08,-15.34 10.62,-32.26 10.62,-50.75 0,-19.54 -3.67,-38.03 -11.01,-55.61 -7.22,-17.7 -16.92,-31.34 -28.99,-41.04 -10.49,-8.53 -22.55,-14.3 -35.93,-17.45 -13.51,-3.01 -33.96,-4.59 -61.37,-4.59l-35.8 0zm0 240.78l0 158.29c0,19.14 1.31,34.62 4.06,46.42 2.62,11.8 7.08,21.77 13.25,30.03 13.11,17.18 35.54,25.71 67.4,25.71 41.31,0 73.97,-11.28 97.97,-33.84 24,-22.55 36.06,-53.24 36.06,-92.19 0,-22.29 -3.67,-42.88 -11.15,-62.03 -7.47,-19.02 -17.44,-33.7 -30.03,-43.93 -23.08,-19.02 -59.27,-28.46 -108.58,-28.46l-68.98 0zm365.36 272.25l0 -8.66c25.83,0 45.77,-7.34 59.93,-21.9 7.87,-8.26 13.38,-18.75 16.26,-31.47 3.02,-12.72 4.46,-32.13 4.46,-58.36l0 -283.79c0,-27.14 -1.57,-47.21 -4.85,-60.19 -3.15,-12.99 -9.05,-23.61 -17.84,-31.74 -7.21,-6.69 -15.21,-11.54 -24,-14.69 -8.78,-3.01 -20.19,-4.85 -33.96,-5.37l0 -8.66 244.71 0 0 8.66c-14.03,0.78 -25.57,2.75 -34.62,5.77 -8.92,3.01 -16.79,8 -23.74,14.55 -8.66,8.53 -14.56,19.15 -17.7,32 -3.02,12.85 -4.59,32.66 -4.59,59.67l0 221.89c0,34.1 0.91,59.54 2.62,76.2 1.83,16.65 5.38,30.29 10.49,40.78 8.92,18.49 22.16,32 39.87,40.66 17.7,8.52 41.04,12.85 70.29,12.85 30.42,0 56.13,-4.07 76.98,-12.07 20.85,-8.13 38.03,-20.59 51.28,-37.5 8.91,-11.54 16.39,-24.66 22.16,-39.35 5.64,-14.55 11.01,-33.83 15.87,-57.7l9.44 0.79 -5.51 157.63 -457.55 0zm724.56 -524.83l0 8.66c-14.56,0.78 -26.36,2.88 -35.54,6.16 -9.05,3.28 -17.18,8.66 -24.39,16.13 -9.97,10.23 -16.13,24.52 -18.36,42.75 -1.58,13.64 -2.36,29.25 -2.36,46.95l0 283.53c0,21.38 1.05,38.16 3.01,50.49 2.1,12.2 5.38,22.16 10.1,29.51 6.56,10.36 15.21,17.96 25.7,22.95 10.5,4.98 24.4,8 41.84,9.04l0 8.66 -244.71 0 0 -8.66c14.82,-0.78 26.75,-2.88 35.93,-6.29 9.05,-3.54 17.05,-8.79 24,-16 8.13,-8.26 13.64,-18.62 16.52,-31.21 2.76,-12.59 4.2,-32 4.2,-58.49l0 -283.53c0,-26.49 -1.44,-45.9 -4.2,-58.49 -2.88,-12.59 -8.39,-22.95 -16.52,-31.21 -6.95,-7.47 -14.95,-12.85 -24.26,-16.13 -9.18,-3.28 -21.12,-5.38 -35.67,-6.16l0 -8.66 244.71 0zm700.95 8.66c-14.56,0.78 -26.23,2.75 -35.15,5.9 -8.79,3.28 -16.92,8.52 -24.39,16 -5.64,5.37 -9.84,11.41 -12.72,17.96 -2.76,6.56 -4.72,14.82 -5.77,24.79 -1.71,13.38 -2.63,29.11 -2.63,47.34l0 283.53c0,26.49 1.58,46.03 4.59,58.88 3.15,12.85 8.66,23.08 16.53,30.82 14.16,13.64 33.96,20.98 59.54,22.29l0 8.66 -245.11 0 0 -8.66c14.82,-0.78 26.75,-2.88 35.93,-6.29 9.05,-3.54 17.18,-8.79 24.4,-16 7.87,-8.26 13.37,-18.75 16.26,-31.34 3.01,-12.72 4.46,-32.13 4.46,-58.36l0 -343.98 -198.03 464.63 -8 0 -196.84 -457.68 0 337.03c0,26.49 1.44,45.9 4.46,58.49 2.88,12.59 8.39,22.95 16.26,31.21 7.21,7.48 15.34,12.85 24.39,16.13 9.18,3.28 20.99,5.38 35.67,6.16l0 8.66 -177.17 0 0 -8.66c14.56,-0.78 26.36,-2.88 35.54,-6.16 9.05,-3.28 17.18,-8.65 24.39,-16.13 7.87,-8.26 13.38,-18.75 16.26,-31.34 3.02,-12.72 4.46,-32.13 4.46,-58.36l0 -283.53c0,-11.8 -0.39,-22.95 -1.18,-33.57 -1.31,-18.89 -4.19,-32.79 -8.78,-41.44 -6.43,-12.07 -15.22,-20.98 -26.36,-26.75 -11.15,-5.77 -25.97,-9.18 -44.33,-10.23l0 -8.66 166.68 0 166.29 411.13 172.45 -411.13 157.9 0 0 8.66zm573.87 516.17l-252.71 0 0 -8.66c22.82,-2.09 38.82,-5.9 47.74,-11.54 15.87,-9.96 23.87,-23.86 23.87,-41.57 0,-10.49 -3.54,-24.52 -10.76,-42.23l-6.55 -16.13 -36.85 -90.75 -169.44 0 -20.06 53.12 -9.71 23.73c-11.54,28.2 -17.31,50.36 -17.31,66.49 0,9.58 2.1,18.36 6.43,26.62 4.19,8.13 9.83,14.82 17.04,19.94 10.1,6.95 22.95,11.01 38.69,12.32l0 8.66 -172.32 0 0 -8.66c13.64,-0.78 25.44,-4.06 35.8,-9.96 10.23,-5.9 20.2,-15.48 29.9,-28.46 8.27,-10.49 16.27,-24.13 24.13,-40.65 7.74,-16.53 18.1,-41.31 30.82,-74.36l140.59 -362.74 22.03 0 167.6 404.18c12.59,30.56 22.55,52.33 30.03,65.44 7.34,13.11 15.47,22.95 24.13,29.64 6.16,4.59 13.24,8.13 21.11,10.62 8,2.36 19.94,4.46 35.8,6.29l0 8.66zm-241.3 -226.61l-80.65 -199.34 -76.59 199.34 157.24 0zm524.7 239.99l-14.16 39.21c23.6,4.19 41.05,10.88 52.32,20.19 11.28,9.45 16.92,21.64 16.92,36.72 0,16.66 -7.61,30.82 -22.69,42.36 -15.08,11.54 -33.7,17.31 -55.73,17.31 -23.35,0 -46.95,-6.82 -71.08,-20.46l5.51 -8.65c19.93,7.47 37.11,11.15 51.4,11.15 12.07,0 22.17,-4.07 30.56,-12.33 8.26,-8.26 12.46,-18.23 12.46,-30.03 0,-9.84 -2.89,-17.84 -8.52,-24.13 -5.64,-6.3 -15.74,-12.72 -30.17,-19.15 -1.83,-0.65 -4.33,-1.84 -7.73,-3.41l18.09 -50.36c-51.01,-5.64 -94.16,-20.59 -129.57,-44.98 -33.04,-22.82 -58.35,-53.24 -76.06,-91.14 -17.7,-38.03 -26.49,-80.65 -26.49,-128.13 0,-46.95 8.4,-90.22 25.31,-129.83 16.92,-39.6 40.53,-71.47 70.82,-95.6 23.21,-18.36 51.14,-33.05 83.54,-43.93 32.39,-10.89 64.91,-16.4 97.43,-16.4 30.95,0 63.74,6.04 98.36,17.97l31.47 10.36c6.17,2.23 11.55,3.41 16.13,3.41 6.43,0 11.68,-2.62 15.74,-8 1.84,-2.62 3.94,-6.82 6.56,-12.72l9.44 0 4.72 171.53 -8.65 0c-2.76,-7.47 -4.99,-13.11 -6.56,-16.91 -8.92,-24.66 -16.26,-42.89 -21.9,-54.95 -10.1,-21.64 -24.52,-41.31 -43.54,-59.28 -14.43,-13.51 -29.24,-23.47 -44.59,-29.64 -15.47,-6.16 -32.78,-9.18 -52.06,-9.18 -28.98,0 -54.16,6.3 -75.41,18.89 -18.75,11.01 -36.19,26.88 -52.32,47.6 -16.26,20.59 -29.38,44.2 -39.74,70.69 -14.56,37.24 -21.9,79.6 -21.9,127.07 0,40.27 4.98,76.59 14.95,108.98 10.1,32.4 24.66,59.41 43.93,81.31 35.41,40.52 82.36,60.85 140.85,60.85 29.24,0 55.47,-5.11 78.82,-15.21 23.34,-10.23 41.44,-24.52 54.29,-43.15 14.82,-21.24 25.57,-50.09 32.26,-86.42l8.65 1.57c-4.85,40.53 -15.86,72.66 -33.04,96.52 -16.4,22.56 -38.82,39.87 -67.41,52.07 -28.59,12.19 -61.24,18.23 -98.09,18.23l-13.12 0zm788.95 -13.38l-252.71 0 0 -8.66c22.82,-2.09 38.82,-5.9 47.74,-11.54 15.87,-9.96 23.87,-23.86 23.87,-41.57 0,-10.49 -3.54,-24.52 -10.76,-42.23l-6.55 -16.13 -36.85 -90.75 -169.44 0 -20.06 53.12 -9.71 23.73c-11.54,28.2 -17.31,50.36 -17.31,66.49 0,9.58 2.1,18.36 6.43,26.62 4.19,8.13 9.83,14.82 17.04,19.94 10.1,6.95 22.95,11.01 38.69,12.32l0 8.66 -172.32 0 0 -8.66c13.64,-0.78 25.44,-4.06 35.8,-9.96 10.23,-5.9 20.2,-15.48 29.9,-28.46 8.27,-10.49 16.27,-24.13 24.13,-40.65 7.74,-16.53 18.1,-41.31 30.82,-74.36l140.59 -362.74 22.03 0 167.6 404.18c12.59,30.56 22.55,52.33 30.03,65.44 7.34,13.11 15.47,22.95 24.13,29.64 6.16,4.59 13.24,8.13 21.11,10.62 8,2.36 19.94,4.46 35.8,6.29l0 8.66zm-241.3 -226.61l-80.65 -199.34 -76.59 199.34 157.24 0zm33.44 -435.13l8.66 0c0.79,5.64 1.18,9.83 1.18,12.33 0,16 -4.59,29.11 -13.64,39.34 -9.18,10.1 -20.98,15.21 -35.67,15.21 -10.23,0 -19.8,-1.57 -28.85,-4.85 -8.92,-3.15 -23.34,-9.97 -43.02,-20.59 -10.36,-5.64 -18.88,-8.39 -25.83,-8.39 -16.66,0 -25.97,8.39 -28.06,25.18l-8.66 0c-0.26,-3.54 -0.39,-6.43 -0.39,-8.4 0,-17.44 4.19,-31.34 12.72,-41.57 8.39,-10.23 19.93,-15.34 34.62,-15.34 13.9,0 28.72,4.19 44.59,12.46l17.31 9.31c15.47,8 28.06,12.06 38.16,12.06 7.87,0 13.77,-1.97 17.7,-5.77 3.81,-3.8 6.82,-10.75 9.18,-20.98zm236.32 402.6c0,-43.01 9.18,-83.01 27.67,-119.73 18.49,-36.85 45.38,-68.85 80.65,-96.26 26.5,-20.32 54.95,-35.8 85.38,-46.68 30.55,-10.89 61.24,-16.4 92.19,-16.4 39.47,0 77.64,8.66 114.62,25.97 36.85,17.31 69.11,41.7 96.78,73.18 45.11,51.27 67.67,109.5 67.67,174.94 0,32.79 -5.9,64.39 -17.7,94.95 -11.81,30.42 -28.99,58.22 -51.54,83.4 -27.67,31.22 -60.33,55.48 -98.1,72.66 -37.77,17.18 -77.37,25.7 -118.55,25.7 -40.78,0 -79.73,-8.39 -116.85,-25.05 -37.24,-16.65 -69.24,-40.13 -96.12,-70.68 -21.25,-23.87 -37.64,-50.89 -49.05,-81.31 -11.41,-30.3 -17.05,-61.9 -17.05,-94.69zm92.85 5.51c0,74.49 20.2,137.18 60.72,188.19 18.23,22.82 37.51,39.47 57.96,49.83 20.33,10.36 43.94,15.61 70.56,15.61 26.88,0 50.62,-5.11 70.95,-15.34 20.45,-10.36 39.86,-27.02 58.35,-50.1 40.53,-51.28 60.72,-114.49 60.72,-189.63 0,-41.31 -5.64,-80.39 -16.78,-117.24 -11.15,-36.85 -26.76,-68.06 -47.08,-93.64 -16.4,-21.11 -34.63,-36.45 -54.82,-46.03 -20.07,-9.57 -43.93,-14.42 -71.34,-14.42 -27.15,0 -50.75,4.72 -70.56,14.29 -19.93,9.44 -38.29,24.79 -55.21,46.16 -20.19,25.31 -35.93,56.53 -46.95,93.51 -11.01,36.85 -16.52,76.58 -16.52,118.81z"/>
  </g>
  <path class="fil3" d="M14437.69 11426.9c-138.08,-0.75 -229.79,19.28 -367.26,-29.15 -67.05,-23.63 -210.44,-77.92 -253.76,-124.55l809.59 1.84c62.76,373.48 -204.73,1231.8 -380.02,1586.37 -179.72,363.54 -617.67,970.66 -867.47,1099.21l410.78 -508.43c326.63,-455.21 751.26,-1537.57 648.14,-2025.29zm-6955.49 -531.34c0,-614.11 144.2,-1193.27 359.87,-1676.74 161.54,-362.11 616.49,-1031.59 880.75,-1166.55 -55.27,94.72 -148.49,194.85 -221.47,276.16 -196.16,218.56 -410.03,621.71 -532.52,904.91 -430.26,994.78 -399.45,2488.61 29.34,3462.7 233.22,529.81 320.79,610.54 621.51,1003.08 76.52,99.88 180.69,178.88 245.95,276.41 -331.31,-173.31 -809.34,-870.66 -992.11,-1248.45 -252.03,-520.94 -391.32,-1155.18 -391.32,-1831.52zm6927.9 -1268.88c-178,20.95 -149.93,-46.98 -200.41,-197.89 -98.73,-295.12 -216.17,-513.2 -371.01,-764.47 -101.39,-164.53 -371.28,-493.64 -506.98,-632.58 -55.87,-57.2 -144.65,-127.32 -191.23,-180 76.77,26.56 362.25,276.02 427.13,336.04 267.64,247.63 840.53,1094.94 842.5,1438.9zm716.94 1277.23l-3266.42 1.87c-25.66,81.77 -19.59,197.26 -3.96,281.39 477.28,16.58 614.82,-76.35 1223.71,83.31 177.82,46.62 331.41,110.6 479.18,192.58 127.3,70.63 337.29,234.96 385.83,310.23 17.49,335.95 -191.19,952.28 -304.93,1209.92 -292.55,662.75 -900.63,1245.84 -1574.19,1491.89 -1276.61,466.35 -2491.76,-55.59 -3202.48,-1020.45 -428.43,-581.63 -694.71,-1431.01 -733.31,-2334.95 -72.86,-1706.13 623.61,-3390.06 2355.6,-3757.73 1281.98,-272.14 2450.15,415.56 3028.17,1458.96 284.11,512.86 247.49,685.16 381.62,1148.7l1095.63 3.5c16.44,-262.31 -393.23,-1054.39 -589.84,-1330.83 -1513.74,-2128.28 -4754.53,-2355.85 -6540.4,-133.36 -940.83,1170.86 -1133.81,3016.91 -277.35,4490.88 225.78,388.56 585.97,817.96 897.2,1061.87 828.91,649.6 1828.59,1049.56 2943.72,943.9 582.91,-55.23 1069.76,-199.54 1512.13,-426.19 218.27,-111.83 418.28,-238.7 604.08,-367.22 96.93,-67.03 176.59,-148.52 265.11,-220.78 390.32,-318.65 799.31,-911.88 1024.6,-1440.8 153.47,-360.31 360.99,-1198.23 296.3,-1646.69z"/>
  <path class="fil4" d="M11677.55 11371.08c0,-134.2 -23.97,-533.47 13.34,-632.95l3605.25 -12.95c119.77,1016.7 -341.62,2342.1 -1047.47,3073.93 -330.24,342.38 -642.96,640.19 -1153.6,900.71 -485.86,247.88 -971.29,423.53 -1599.12,474.3 -1304.9,105.53 -2391.48,-350.31 -3117.95,-971.83 -1322.72,-1131.64 -1847.2,-2831.77 -1333.37,-4510.16 432.46,-1412.62 1686.4,-2597.94 3332.14,-2867.35 1971.08,-322.67 3912.64,775.02 4604.75,2508.16 64.22,160.84 242.16,621.64 227.54,809.7l-1463.43 3.95c-61.01,-185.96 -85.04,-460.72 -144.72,-664.69 -695.91,-2378.71 -3941.17,-2881.22 -5029.66,-205.59 -322.39,792.48 -326.4,1991.15 -112.05,2849.29 230.42,922.49 682.28,1512.17 1276.77,1931.76 701.84,495.37 1752.5,537.16 2548.7,131.29 626.65,-319.45 1172.28,-983.25 1395.3,-1818.33 27.5,-103 41.86,-216.46 64.16,-325.85 37.41,-183.56 70.18,-192.61 -64.01,-289.96 -148.3,-107.59 -316.61,-212.34 -522.36,-279.51 -206.99,-67.58 -442.17,-114.25 -671.88,-126.06 -280.31,-14.41 -547.18,31.03 -808.33,22.14zm3785.15 -823.31l-3971.25 6.68c-15.05,194.31 28.71,535.43 -28.05,699.08 -85.64,246.91 -251.72,303.61 -307.54,426.39 30.65,52.87 62.77,85.39 116.28,110.92 223.06,-107.61 45.31,-231.95 455.18,-247.19 -38.24,125.32 -249.46,258.28 -318.87,360.37 20.23,51.5 56.55,86.73 106.31,114.17 78.21,-38.66 313.42,-294.83 392.79,-374.76 171.02,-172.24 190.52,-118.9 650.24,-106.15 12.93,99.07 -13.19,22.22 -36.16,128.68 42.31,33.64 52.48,52.88 112.94,79.62 71.39,-45.29 98.32,-108.2 149.3,-172.81l162.22 21.31c-45.58,162.31 -145.41,198.72 -175.95,291.26l102.72 101.59c130.83,-66.23 168,-200.06 246.96,-327.48 165.91,22.16 331.31,148.91 441.13,231.27 9.05,147.87 -130.5,699.61 -198.51,793.52 -127.04,-238.26 8.95,-93.07 -225.5,-330.5l-581.17 -538.81c-122.48,-104.45 -131.17,-200.38 -388.03,-173.37 17.59,94.4 501.71,497.65 599.22,596.84 188.71,191.96 561.49,394.41 452.72,737.39 -124.39,392.23 -821.3,1056.14 -1265.03,1157.45 84.83,-188.31 201.08,-206.84 229.74,-493.3 24.49,-244.78 -72.47,-437.31 -203.04,-527.6 -60.26,24.9 -87.58,56.49 -112.35,117.61 79.21,132.42 218.24,259.48 121.73,512.16 -204.64,535.71 -896.25,700.18 -1382.05,413.96 -231.96,-136.68 -566.88,-531.18 -261.47,-880.55 128.96,-147.53 602.18,-589.23 667.81,-717.88 -33.19,-52.95 -53.13,-80.91 -116.15,-101.01l-692.72 696.98c-97.5,130.04 -180.49,309.28 -142.04,539.08 37.13,221.96 151.03,332.32 249.78,447.89 -383.62,-28.2 -1375.62,-907.69 -1311.91,-1314.64 35.78,-228.58 304.04,-355.88 387.43,-511.07 -23.07,-45.03 -52.83,-79.22 -114.26,-106.95 -207.13,106.21 -397.16,457.17 -429.26,480.56 -69.96,-104.5 -177.43,-437.17 -152.87,-597.37 35.55,-231.99 189.77,-356.26 278.34,-488.49l52.33 89.35c98.7,323.82 411.27,522.67 668.26,766.2 71.06,67.34 212.47,209.15 292.41,255.43 67.36,-22.56 83.1,-47.34 117.65,-99.93 -31.1,-81.53 -236.95,-229.09 -305.26,-297.96 -177.48,-178.97 -478.12,-377.73 -591.3,-602.71 -80.76,-160.52 -51.67,-362.59 85.52,-423.87 3.77,472.18 332.56,618.72 654,934.37 58.98,57.91 225.51,218.88 282.01,253.36 45.97,-25.14 90.19,-68.64 113.2,-124.64 -37.64,-52.92 -136.34,-136.59 -198.68,-194.38 -169.18,-156.83 -518.61,-425.47 -622.97,-610.16 -49.44,-87.51 -77.6,-227.98 -62.2,-353.97 20.96,-171.44 257.78,-346.71 370.53,-455.71 91.23,-88.2 117.51,-135.82 67.34,-308.49 -61.32,25.21 -1015.24,990.46 -1166.87,1187.81 -56.55,73.6 -77.02,128.48 -124.07,224.87 -49.47,-68.82 -59,-266.75 -9.85,-339.35 105.88,-156.4 834.02,-844.1 1025.8,-1047.2 83.13,-88.04 329.14,-381.41 426.31,-424.48l-0.07 761.35c-73.76,-33.21 -26.31,-27.57 -98.42,-51.66 -48.8,35.58 -76.89,52.68 -91.73,117.36 46.16,70.08 331.73,320.19 420.06,399.68 160.82,144.72 1222.54,1153.6 1314.05,1180.9l102.62 -98.71c-55.6,-103.31 -507.27,-483.59 -622.6,-588.12 -112.23,-101.71 -201.91,-180.67 -309.46,-287.92 -183.45,-182.94 -165.47,-66.32 -167.98,-419.07 -2.84,-398.29 -16.53,-797.14 -17.25,-1195.22 -0.38,-211.5 13.11,-345.03 116.05,-488.56 62.48,-87.1 220.84,-244.22 320.06,-301.46 163.45,32.28 383.18,292.52 434.61,466.99 74.71,253.44 1.74,643.77 57.76,837.28 5.21,2.05 12.93,-1.37 16.07,4.82 3.16,6.24 11.87,3.62 16.33,4.33l130.66 1.92c12.96,-186.93 -11.37,-424.25 -12.7,-619.46 -1.37,-200.26 -41.71,-348.83 -132.26,-491.63 -76.78,-121.09 -200.54,-217.22 -327.32,-307.38 -194.38,-138.25 -220.73,-105.68 -396.4,44.77 -272.74,233.57 -386.09,360.06 -397.98,867.06 -9.36,399.17 4.61,860.99 21.27,1262.95 -236.02,-72.45 -183.74,-331.79 -190.65,-609.32 -6.34,-253.89 -16.96,-532.09 -6.12,-784.56 15.91,-370.9 151.14,-572.65 383.5,-795.55 62.99,-60.43 167.04,-115.12 199.7,-194.02 -89.78,-68.02 -359.19,-156.13 -487.13,-185.01 -276.34,-62.38 -371.77,-27.91 -641.81,-8.31 21.06,-51.31 48.8,-72.34 111.37,-113.79 132.1,-87.53 265.61,-173.48 415.68,-238.52 220.7,-95.62 461.72,-145.49 549.76,-317.61 -855.36,20.11 -1753.53,826.44 -1751.64,1628.9 0.93,394.1 159.37,609.62 322.91,821.75 56.92,-23.15 77.04,-48.33 104.35,-112.08 -187.04,-289.07 -263.76,-369.05 -250.51,-822.24 136.12,58.18 325.67,209.04 422.92,325.98 43.13,51.87 59.34,112.83 101.19,153.85 153.18,-129.21 147.86,-505.35 343.02,-827.34 48.23,-79.58 132.36,-164.27 152.63,-230.89 -51.42,-32.46 -115.21,-42.21 -178.37,-36.74 -160.8,68.41 -346.23,727.24 -354.61,740.86 -101.29,-38.67 -365.5,-227.49 -438.65,-293.26 -53.65,-108.62 180.87,-768.76 1266.64,-438.35 -96.29,194.48 -308.8,168.88 -425.58,712.27 -72.82,338.88 -269.3,510.79 -447.58,689.35l-1115.41 1131.79c-52.69,-331.75 0.19,-1007.46 58.81,-1328.7 200.18,-1096.89 793.27,-2032.08 1999.93,-2296.54 879.58,-192.79 1713.13,209.06 2142.62,635.11 876.77,869.79 737.65,1664.21 871.29,1984.65l1842.48 1.7c24.02,-154.58 -145.64,-701.11 -200.14,-861.44 -246.91,-726.53 -779.83,-1449.51 -1362.21,-1903.69 -1379.2,-1075.61 -3336.35,-1315.87 -5008.78,-376.52 -236.29,132.72 -448.9,296.42 -635.81,447.7 -91.51,74.07 -208.86,181.35 -284.76,256.66 -461.48,457.82 -827.68,1050.49 -1038.77,1706.92 -187.46,582.96 -265.15,1281.4 -179.84,1939.95 437.08,3374.46 4481.75,5046.48 7177.13,2856.94 213.97,-173.82 376.68,-345.31 556.8,-544.9 515.48,-571.18 899.63,-1436.52 1008.87,-2254.47 53.93,-403.77 20.9,-663.93 8.58,-1044.14z"/>
  <path class="fil5" d="M15127.04 10903.91c64.69,448.46 -142.83,1286.38 -296.3,1646.69 -225.29,528.92 -634.28,1122.15 -1024.6,1440.8 -88.52,72.26 -168.18,153.75 -265.11,220.78 -185.8,128.52 -385.81,255.39 -604.08,367.22 -442.37,226.65 -929.22,370.96 -1512.13,426.19 -1115.13,105.66 -2114.81,-294.3 -2943.72,-943.9 -311.23,-243.91 -671.42,-673.31 -897.2,-1061.87 -856.46,-1473.97 -663.48,-3320.02 277.35,-4490.88 1785.87,-2222.49 5026.66,-1994.92 6540.4,133.36 196.61,276.44 606.28,1068.52 589.84,1330.83l-1095.63 -3.5c-134.13,-463.54 -97.51,-635.84 -381.62,-1148.7 -578.02,-1043.4 -1746.19,-1731.1 -3028.17,-1458.96 -1731.99,367.67 -2428.46,2051.6 -2355.6,3757.73 38.6,903.94 304.88,1753.32 733.31,2334.95 710.72,964.86 1925.87,1486.8 3202.48,1020.45 673.56,-246.05 1281.64,-829.14 1574.19,-1491.89 113.74,-257.64 322.42,-873.97 304.93,-1209.92 -48.54,-75.27 -258.53,-239.6 -385.83,-310.23 -147.77,-81.98 -301.36,-145.96 -479.18,-192.58 -608.89,-159.66 -746.43,-66.73 -1223.71,-83.31 -15.63,-84.13 -21.7,-199.62 3.96,-281.39l3266.42 -1.87zm-3449.49 467.17c261.15,8.89 528.02,-36.55 808.33,-22.14 229.71,11.81 464.89,58.48 671.88,126.06 205.75,67.17 374.06,171.92 522.36,279.51 134.19,97.35 101.42,106.4 64.01,289.96 -22.3,109.39 -36.66,222.85 -64.16,325.85 -223.02,835.08 -768.65,1498.88 -1395.3,1818.33 -796.2,405.87 -1846.86,364.08 -2548.7,-131.29 -594.49,-419.59 -1046.35,-1009.27 -1276.77,-1931.76 -214.35,-858.14 -210.34,-2056.81 112.05,-2849.29 1088.49,-2675.63 4333.75,-2173.12 5029.66,205.59 59.68,203.97 83.71,478.73 144.72,664.69l1463.43 -3.95c14.62,-188.06 -163.32,-648.86 -227.54,-809.7 -692.11,-1733.14 -2633.67,-2830.83 -4604.75,-2508.16 -1645.74,269.41 -2899.68,1454.73 -3332.14,2867.35 -513.83,1678.39 10.65,3378.52 1333.37,4510.16 726.47,621.52 1813.05,1077.36 3117.95,971.83 627.83,-50.77 1113.26,-226.42 1599.12,-474.3 510.64,-260.52 823.36,-558.33 1153.6,-900.71 705.85,-731.83 1167.24,-2057.23 1047.47,-3073.93l-3605.25 12.95c-37.31,99.48 -13.34,498.75 -13.34,632.95z"/>
  <path class="fil4" d="M12333.56 8467.8c-65.56,28.11 -218.11,-4.76 -315.64,-0.27 -348.29,16.03 -558.64,144.33 -825.06,255.7 50.06,104.13 402.03,242.53 551.84,598.02 142.97,339.28 55.34,704.63 117.01,1034.56 45.91,28.63 43.23,24.32 159.51,17.67l-4.32 -407.79c74.67,34.19 205.28,184.6 270.63,249.99 138.84,138.91 97.73,164 371.5,161.29 -39.27,-141.98 -454.97,-355.3 -619.59,-753.44 -69.06,-167.05 -91.58,-351.61 -181.87,-489.52 -167.28,-255.5 -269.85,-272.66 -329.04,-367.41 23.28,-19.99 -0.01,-8.23 48.76,-31.3 270.75,-128.06 705.44,-147.28 997.52,15.69 103.25,57.61 298.58,255.52 199.43,397.65 -48.96,70.18 -315.35,232.58 -410.24,260.34 -74.46,-303.91 -196.74,-475.18 -340.64,-681.2 -74.71,-9.87 -134.82,1.01 -197,14.59 19.54,100.9 152.82,182.48 279.18,460.13 74.64,163.98 84.01,450.29 193.08,550.64 39.82,-43.82 57.91,-90.58 102.44,-137.14 67.81,-70.89 405.93,-296.69 465.79,-319.8 -18.71,644.74 -209.63,694.16 -265.17,833.68l101.42 115.53c172.33,-120.75 336.99,-518.72 327.38,-807.07 -11.71,-351.28 -129.38,-617.36 -312.24,-829.91 -293.48,-341.15 -839.22,-739.4 -1524.54,-759.26 34.11,54.98 52.73,53.97 115.2,96.13 46.73,31.54 77.83,58.97 134.09,89.43 95.58,51.75 218.6,82.09 324.52,122.56 179.85,68.71 459.68,196.69 566.05,310.51z"/>
  <path class="fil6" d="M7482.2 10895.56c0,676.34 139.29,1310.58 391.32,1831.52 182.77,377.79 660.8,1075.14 992.11,1248.45 -65.26,-97.53 -169.43,-176.53 -245.95,-276.41 -300.72,-392.54 -388.29,-473.27 -621.51,-1003.08 -428.79,-974.09 -459.6,-2467.92 -29.34,-3462.7 122.49,-283.2 336.36,-686.35 532.52,-904.91 72.98,-81.31 166.2,-181.44 221.47,-276.16 -264.26,134.96 -719.21,804.44 -880.75,1166.55 -215.67,483.47 -359.87,1062.63 -359.87,1676.74z"/>
  <path class="fil4" d="M9606.41 11094.76c57.86,96.28 905.72,861.57 1073.27,1009.88 78.19,69.21 154.42,133.47 229.63,199.95 95.02,83.99 333.67,369.05 437.48,396.1l105.34 -100.08c-30.21,-63.19 -153.31,-167.7 -210.05,-218.2l-649.95 -600.83c-99.06,-91.09 -844.91,-768.48 -887.72,-781.01l-98 94.19z"/>
  <path class="fil6" d="M14437.69 11426.9c103.12,487.72 -321.51,1570.08 -648.14,2025.29l-410.78 508.43c249.8,-128.55 687.75,-735.67 867.47,-1099.21 175.29,-354.57 442.78,-1212.89 380.02,-1586.37l-809.59 -1.84c43.32,46.63 186.71,100.92 253.76,124.55 137.47,48.43 229.18,28.4 367.26,29.15z"/>
  <path class="fil4" d="M10767.22 8318.4c29.15,-40.36 181.89,-171.61 242.24,-169.27 61.38,2.37 209.97,111.84 242.37,150.59 -148.41,164.56 -357.56,146.58 -484.61,18.68zm-312 93.38l566.38 214.02c36.5,-6.39 202.04,-109.72 255.1,-134.98 96.48,-45.96 198.06,-79.83 291.6,-119.57 -28.22,-117.53 -511.63,-441.93 -575.88,-440.32 -59.58,1.49 -491.31,344.4 -537.2,480.85z"/>
  <path class="fil4" d="M9873.08 13718.69c-11.6,-434.85 91.47,-546.56 355.84,-841.64 128.06,-142.93 445.53,-429.57 524.56,-543.51 -22.43,-62.57 -54.04,-92.78 -115.9,-118.53l-643.78 650.78c-129.46,132.13 -429.83,599.09 -226.51,786.85 45.94,42.42 42.45,53.36 105.79,66.05z"/>
  <path class="fil4" d="M11858.33 11866.67c121.18,175.55 992.08,827.65 1070.67,1102.58l41.51 116.51c124.98,-149.8 125.95,-275.24 -14.35,-420.35l-654.18 -615.3c-89.52,-79.86 -246.74,-258.68 -339.3,-302.46 -56.03,33.46 -89.98,59.19 -104.35,119.02z"/>
  <path class="fil4" d="M10535.4 13229.95c51.6,104 490.41,455.98 634.93,606 117.63,122.1 69.99,109.71 139.13,267.3 218.09,2.01 171.98,-159.35 91.1,-273.4 -68.52,-96.62 -158.43,-160.72 -244.43,-240.87 -74.42,-69.37 -449.58,-439.05 -518.55,-466.92 -48.51,23.07 -77.12,65.47 -102.18,107.89z"/>
  <path class="fil4" d="M10771.65 12987.17l696.76 662.66c208.94,210.68 102.41,139.05 177,284.33 137.86,-43.86 128.43,-197.16 41.17,-315.83l-806.38 -748.09c-52.36,24.28 -83.15,51.71 -108.55,116.93z"/>
  <path class="fil4" d="M11455.03 13229.95c24.29,63.18 53.17,86.34 115.72,115.8l814.51 -802.91c-25.88,-74.32 -47.35,-90.28 -105.3,-121.56 -85.75,28.44 -151.44,124.38 -212.41,185.27 -129.97,129.8 -555.36,536.58 -612.52,623.4z"/>
  <path class="fil6" d="M14410.1 9626.68c-1.97,-343.96 -574.86,-1191.27 -842.5,-1438.9 -64.88,-60.02 -350.36,-309.48 -427.13,-336.04 46.58,52.68 135.36,122.8 191.23,180 135.7,138.94 405.59,468.05 506.98,632.58 154.84,251.27 272.28,469.35 371.01,764.47 50.48,150.91 22.41,218.84 200.41,197.89z"/>
  <path class="fil4" d="M11204.57 13005.85c26.7,48.85 63.18,88.13 123.56,108.5l792.1 -818.15c-23.37,-63.43 -56.52,-93.82 -120.22,-117.83 -55.21,36.33 -763.04,771.04 -795.44,827.48z"/>
  <path class="fil7" d="M12100.16 12964.39c105.9,233.38 269.97,109.51 269.97,740.82 406.54,-58.66 30.11,-759.48 -164.82,-849.04l-105.15 108.22z"/>
  <path class="fil7" d="M9107.18 10580.18l103.2 -108.05c-131.55,-226.07 -269.14,-298.33 -316.15,-687.29l-13.9 -81.75c-1.77,-5.5 -4.21,-10.63 -6.05,-15.51l-14.86 -29.9c-58.98,152.5 -109.23,374.7 -33.43,546.53 57.09,129.42 180.88,326.03 281.19,375.97z"/>
  <path class="fil7" d="M12851.09 10378.56c149.97,2.66 267.63,36.78 382.21,-306.64 76.55,-229.44 16.28,-363.02 -49.41,-548.93 -29.51,34.91 -30.27,48.89 -35.82,117.54 -3.7,45.75 -4.67,83.36 -12.89,133.9 -13.37,82.28 -35.83,162.88 -65.03,229.55 -55.86,127.57 -192.66,269.92 -219.06,374.58z"/>
  <path class="fil7" d="M9293.81 13096.15c58.87,-151.8 22.25,-167.83 137.51,-307.39 67.83,-82.14 158.55,-153.97 211.83,-231.12 -25.6,-57.95 -74.95,-92.54 -125.38,-105.02 -130.63,119.6 -527.17,484.76 -223.96,643.53z"/>
  <path class="fil5" d="M10767.22 8318.4c127.05,127.9 336.2,145.88 484.61,-18.68 -32.4,-38.75 -180.99,-148.22 -242.37,-150.59 -60.35,-2.34 -213.09,128.91 -242.24,169.27z"/>
  <path class="fil7" d="M10581.59 13941.71c21.3,-18.61 8.03,-3.67 26.46,-30.45 3.03,-4.41 16.92,-28.26 20.68,-34.91 86.08,-152.59 138.87,-155.71 162.9,-235.55 -36.71,-48.78 -51.45,-72.95 -116.73,-91.2 -105.39,73.13 -319.65,281.55 -93.31,392.11z"/>
  <path class="fil7" d="M10791.62 14067.47c41.35,27.57 79.29,43.21 144.57,40.29 2.33,-3.33 109.14,-259.06 109.85,-261.53 -27.02,-46.59 -61.41,-83.53 -128.51,-100.05 -69.39,69.86 -139.96,188.55 -125.91,321.29z"/>
  <path class="fil8" d="M10049.5 11922.69c30.21,61.9 53.53,76.3 102.83,110.21 58.93,-19.58 126.03,-88.8 142.81,-147.56l-99.56 -104.97c-76.42,31.75 -107.3,75.19 -146.08,142.32z"/>
  <path class="fil8" d="M9781.41 11679.92l104.23 113.1c71.34,-33.22 106.4,-86.58 133.99,-131.78l-104.87 -118.06c-57.91,27.98 -101.43,65.46 -133.35,136.74z"/>
 </g>
</svg>
